<?xml version="1.0" standalone="no"?>
<!DOCTYPE svg PUBLIC "-//W3C//DTD SVG 20010904//EN"
 "http://www.w3.org/TR/2001/REC-SVG-20010904/DTD/svg10.dtd">
<svg version="1.0" xmlns="http://www.w3.org/2000/svg"
 width="800.000000pt" height="800.000000pt" viewBox="0 0 800.000000 800.000000"
 preserveAspectRatio="xMidYMid meet">
<metadata>
Created by potrace 1.14, written by Peter Selinger 2001-2017
</metadata>
<g transform="translate(0.000000,800.000000) scale(0.100000,-0.100000)"
fill="#000000" stroke="none">
<path d="M0 4000 l0 -4000 4000 0 4000 0 0 4000 0 4000 -4000 0 -4000 0 0
-4000z m6410 -5 l0 -2405 -2405 0 -2405 0 0 2405 0 2405 2405 0 2405 0 0
-2405z"/>
<path d="M1635 6358 c-3 -7 -4 -1073 -3 -2368 l3 -2355 2365 0 2365 0 0 2365
0 2365 -2363 3 c-1885 2 -2364 0 -2367 -10z m2210 -849 c-12 -38 -405 -1414
-405 -1418 0 -2 44 39 98 90 149 145 258 212 401 245 91 22 246 14 323 -15
128 -49 243 -172 288 -310 109 -331 -37 -828 -351 -1190 -160 -185 -395 -340
-609 -401 -97 -28 -276 -37 -373 -20 -93 16 -225 62 -307 107 -94 51 -190 116
-190 128 0 6 149 526 330 1155 390 1349 385 1333 371 1380 -18 61 -56 75 -193
75 l-118 -1 0 38 c0 21 1 38 3 39 15 4 698 117 715 118 19 1 22 -3 17 -20z
m1339 -2629 c77 -53 111 -143 92 -245 -9 -44 -65 -109 -117 -136 -115 -58
-265 13 -300 144 -24 90 26 200 111 245 61 32 160 28 214 -8z"/>
<path d="M3828 4225 c-204 -51 -393 -240 -489 -489 -29 -75 -299 -1004 -299
-1029 0 -26 192 -97 301 -112 104 -15 265 31 381 108 141 94 235 210 334 412
123 251 168 434 168 685 0 149 -2 171 -22 223 -67 166 -210 243 -374 202z"/>
</g>
</svg>
