<svg xmlns="http://www.w3.org/2000/svg" width="250" height="80.01" viewBox="0 0 250 80.01"><path d="M39.31,53A14,14,0,0,0,47.4,56a13.2,13.2,0,0,0,7.15-2.32,18.45,18.45,0,0,0,6-6.49A16.58,16.58,0,0,0,63,38.8a7.15,7.15,0,0,0-1.83-5.17,6.19,6.19,0,0,0-4.69-1.9,8.46,8.46,0,0,0-3.91,1,18.41,18.41,0,0,0-4.37,3.58l5.14-18-9,1.47v1A12.15,12.15,0,0,1,46,20.5a2.86,2.86,0,0,1,1.78.47,1.24,1.24,0,0,1,.42,1,24.5,24.5,0,0,1-.92,3.71ZM49.93,36.15a7.34,7.34,0,0,1,4.75-1.94,3.65,3.65,0,0,1,2.81,1.35,5.54,5.54,0,0,1,1.18,3.76,19.31,19.31,0,0,1-1.81,8.06,13.31,13.31,0,0,1-4.28,5.68,8.48,8.48,0,0,1-4.76,1.68,9.81,9.81,0,0,1-4.6-1.43l3.4-11.74A10.63,10.63,0,0,1,49.93,36.15ZM80.08,25.82A2.54,2.54,0,0,1,79.31,24a2.58,2.58,0,0,1,2.61-2.61A2.56,2.56,0,0,1,84.53,24a2.61,2.61,0,0,1-2.61,2.6A2.53,2.53,0,0,1,80.08,25.82ZM73,55.33a2.07,2.07,0,0,1-.68-1.6,13,13,0,0,1,.65-3.21l3.39-11.7a18.59,18.59,0,0,0,.84-3.6,1.23,1.23,0,0,0-.41-.94,1.61,1.61,0,0,0-1.11-.36,17.9,17.9,0,0,0-2.37.29v-1l9-1.46L77.09,50a14.84,14.84,0,0,0-.52,2.22.94.94,0,0,0,.25.68.8.8,0,0,0,.59.26,1.68,1.68,0,0,0,.94-.42,15.49,15.49,0,0,0,3-3.34l.91.6a18.5,18.5,0,0,1-4.17,4.57A5.64,5.64,0,0,1,74.69,56,2.41,2.41,0,0,1,73,55.33ZM95.93,39a21.42,21.42,0,0,0,.84-3.55,1.38,1.38,0,0,0-.46-1A1.61,1.61,0,0,0,95.17,34a10.14,10.14,0,0,0-1.09.11l-1,.15-.16-.94,9-1.61L98.49,43.6Q103.37,36.33,106,34a7.69,7.69,0,0,1,5-2.29,2.89,2.89,0,0,1,2.16.86,3.07,3.07,0,0,1,.85,2.24,16.1,16.1,0,0,1-.76,4.18L110,50a13.41,13.41,0,0,0-.54,2.33.9.9,0,0,0,.21.61.55.55,0,0,0,.44.25,1.33,1.33,0,0,0,.76-.34,17.16,17.16,0,0,0,3-3.34l.81.49a19.59,19.59,0,0,1-4.59,5,5,5,0,0,1-2.72,1,2,2,0,0,1-1.53-.59,2.11,2.11,0,0,1-.58-1.57,18.3,18.3,0,0,1,.89-4.31l3-10.49a11.84,11.84,0,0,0,.57-3.06,1.09,1.09,0,0,0-.34-.84,1.15,1.15,0,0,0-.83-.33,3.49,3.49,0,0,0-1.75.63,15.55,15.55,0,0,0-4,3.87,55,55,0,0,0-4.41,6.9,25.32,25.32,0,0,0-2,4.86l-1.3,4.3H91.18Zm32.25,17a7.06,7.06,0,0,0,4.1-1.54q3.1-2.25,6.89-8.09l-1,3.24a14.29,14.29,0,0,0-.78,4,2.51,2.51,0,0,0,.57,1.77,1.91,1.91,0,0,0,1.47.63A5.73,5.73,0,0,0,143,54.35a23.17,23.17,0,0,0,3.8-4.22l-.89-.55a20.8,20.8,0,0,1-3,3.13,1.5,1.5,0,0,1-.81.34.64.64,0,0,1-.46-.24.73.73,0,0,1-.22-.49,15.87,15.87,0,0,1,.73-3.29l9-30.8-9,1.49v1a18.29,18.29,0,0,1,2-.19,2.12,2.12,0,0,1,1.4.45,1.17,1.17,0,0,1,.4.91,6.22,6.22,0,0,1-.32,1.72c-.12.39-.27.9-.47,1.54l-2.55,9.09a6.94,6.94,0,0,0-2-1.91,4.91,4.91,0,0,0-2.43-.57,10.69,10.69,0,0,0-5.9,2.21,21,21,0,0,0-6.55,7.18,17.09,17.09,0,0,0-2.48,8.3,7.19,7.19,0,0,0,1.48,4.79A4.4,4.4,0,0,0,128.18,56Zm3-17.48q3.56-5.43,6.85-5.43a3.22,3.22,0,0,1,2.45,1,3.74,3.74,0,0,1,1,2.68c0,2.93-1.37,6.34-4.1,10.26s-5,5.87-6.81,5.87a2.59,2.59,0,0,1-2.06-1,4.52,4.52,0,0,1-.87-3A19,19,0,0,1,131.2,38.49ZM163.64,56q5.63,0,11.8-6.13l-.55-.76a29.5,29.5,0,0,1-5.15,3.41,8.87,8.87,0,0,1-3.61.77,5.47,5.47,0,0,1-4-1.64,5.36,5.36,0,0,1-1.64-3.95,16.37,16.37,0,0,1,.18-2.16,36.72,36.72,0,0,0,8.22-1.68,15.84,15.84,0,0,0,6.68-4.17,6.26,6.26,0,0,0,1.72-4.15A3.37,3.37,0,0,0,176,32.85a6.22,6.22,0,0,0-4.09-1.12A14,14,0,0,0,164.4,34a18.18,18.18,0,0,0-6,6.33,15.66,15.66,0,0,0-2.4,8,8.31,8.31,0,0,0,1.93,5.3A6.94,6.94,0,0,0,163.64,56Zm1.61-20.11c2-1.89,3.88-2.83,5.65-2.83a2.71,2.71,0,0,1,2,.68,2.37,2.37,0,0,1,.69,1.77,6.18,6.18,0,0,1-1.6,3.8,12.64,12.64,0,0,1-4.82,3.43,21.94,21.94,0,0,1-6.29,1.52A17.08,17.08,0,0,1,165.25,35.86Zm24,3.28a16.46,16.46,0,0,0,.84-4,1,1,0,0,0-.39-.78,2.14,2.14,0,0,0-1.38-.42,16,16,0,0,0-2,.23l-.19-1,9-1.46-3.76,12.68q4.56-7.8,8.3-10.91c1.41-1.18,2.56-1.77,3.44-1.77a1.84,1.84,0,0,1,1.36.5,2.05,2.05,0,0,1,.5,1.48,6.61,6.61,0,0,1-.89,3.29,2,2,0,0,1-1.8,1.17,1.47,1.47,0,0,1-1-.39,1.87,1.87,0,0,1-.54-1.2,1,1,0,0,0-.23-.65.69.69,0,0,0-.5-.21,1.73,1.73,0,0,0-.83.21,9.08,9.08,0,0,0-2.07,2,57.24,57.24,0,0,0-4.69,6.63,19.78,19.78,0,0,0-1.88,3.89c-.73,2-1.15,3.18-1.26,3.58l-.83,3.28h-4Zm16.87,16a2.54,2.54,0,0,1-.77-1.86,2.65,2.65,0,1,1,5.3,0,2.51,2.51,0,0,1-.78,1.86,2.56,2.56,0,0,1-1.88.77A2.52,2.52,0,0,1,206.16,55.17ZM0,0V80H250V0ZM248.55,78.55H1.45V1.45h247.1Z"/></svg>